<?xml version="1.0" encoding="UTF-8"?>
<svg id="a" data-name="Layer 3" xmlns="http://www.w3.org/2000/svg" viewBox="0 0 758.62 808.8">
  <defs>
    <style>
      .b {
        fill: #729d7d;
      }
    </style>
  </defs>
  <path class="b" d="M691.37,213.8V0l-139.28,91.72c-51.82-26.56-110.55-41.55-172.78-41.55s-120.33,14.83-171.95,41.13L66.57,0v214.79C24.57,275.84,0,349.79,0,429.49c0,209.49,169.82,379.31,379.31,379.31s379.31-169.82,379.31-379.31c0-80.13-24.84-154.45-67.25-215.69ZM214.08,486.77c-81.47,0-147.51-66.04-147.51-147.5s66.04-147.5,147.51-147.5,147.5,66.04,147.5,147.5-66.04,147.5-147.5,147.5ZM379.7,542.06l-53.41-96.67h102.78l-49.37,96.67ZM543.86,486.77c-81.46,0-147.5-66.04-147.5-147.5s66.04-147.5,147.5-147.5,147.51,66.04,147.51,147.5-66.04,147.5-147.51,147.5Z"/>
  <path class="b" d="M268.53,339.27c0,30.07-24.38,54.45-54.45,54.45s-54.45-24.38-54.45-54.45,24.37-54.45,54.45-54.45,54.45,24.38,54.45,54.45Z"/>
  <path class="b" d="M598.31,339.27c0,30.07-24.37,54.45-54.45,54.45s-54.45-24.38-54.45-54.45,24.38-54.45,54.45-54.45,54.45,24.38,54.45,54.45Z"/>
</svg>